# xmcd
#
# Track frame offsets:
#	150
#	29282
#	33755
#	42960
#	50285
#	58097
#	99933
#	114780
#	127843
#	136568
#	149845
#	171820
#	181543
#	188143
#	193418
#	218735
#	228293
#	235178
#	241685
#	247465
#	254013
#	264880
#
# Disc length: 3631 seconds
#
# Revision: 1
# Processed by: cddbd v1.5.1PL0 Copyright (c) Steve Scherf et al.
# Submitted via: audiograbber 1.82.02
#
DISCID=2a0e2d16
DTITLE=Col Elliot - Serves It Up
DYEAR=1900
DGENRE=Country
TTITLE0=Mums
TTITLE1=Toilets
TTITLE2=We All Do It
TTITLE3=Supermarkets
TTITLE4=Pine Fresh
TTITLE5=Kids
TTITLE6=Coppers
TTITLE7=Virgin Mary
TTITLE8=Colonel
TTITLE9=Jgrandad
TTITLE10=Julie
TTITLE11=Hello Dear Murphy
TTITLE12=Parachutist
TTITLE13=14 Inch Penis
TTITLE14=Chooka Returns
TTITLE15=The Missus
TTITLE16=English-Irish Wrestling
TTITLE17=Padded Cell
TTITLE18=Bank Robbers
TTITLE19=Esp
TTITLE20=Appendectomy
TTITLE21=How Much Are Your Nuts
EXTD=
EXTT0=
EXTT1=
EXTT2=
EXTT3=
EXTT4=
EXTT5=
EXTT6=
EXTT7=
EXTT8=
EXTT9=
EXTT10=
EXTT11=
EXTT12=
EXTT13=
EXTT14=
EXTT15=
EXTT16=
EXTT17=
EXTT18=
EXTT19=
EXTT20=
EXTT21=
PLAYORDER=
